<?xml version="1.0" encoding="UTF-8" standalone="no"?>
<!-- Created with Inkscape (http://www.inkscape.org/) -->

<svg
   xmlns:dc="http://purl.org/dc/elements/1.1/"
   xmlns:cc="http://creativecommons.org/ns#"
   xmlns:rdf="http://www.w3.org/1999/02/22-rdf-syntax-ns#"
   xmlns:svg="http://www.w3.org/2000/svg"
   xmlns="http://www.w3.org/2000/svg"
   xmlns:sodipodi="http://sodipodi.sourceforge.net/DTD/sodipodi-0.dtd"
   xmlns:inkscape="http://www.inkscape.org/namespaces/inkscape"
   width="540"
   height="320"
   viewBox="0 0 540.00001 320.00001"
   id="svg4200"
   version="1.1"
   inkscape:version="0.91 r13725"
   sodipodi:docname="PixelartAmbulance.svg">
  <defs
     id="defs4202" />
  <sodipodi:namedview
     id="base"
     pagecolor="#ffffff"
     bordercolor="#666666"
     borderopacity="1.0"
     inkscape:pageopacity="0.0"
     inkscape:pageshadow="2"
     inkscape:zoom="1.9240741"
     inkscape:cx="277.79596"
     inkscape:cy="160"
     inkscape:document-units="px"
     inkscape:current-layer="layer1"
     showgrid="true"
     units="px"
     inkscape:snap-smooth-nodes="true"
     inkscape:object-nodes="true"
     inkscape:window-width="1600"
     inkscape:window-height="837"
     inkscape:window-x="-8"
     inkscape:window-y="-8"
     inkscape:window-maximized="1"
     fit-margin-top="0"
     fit-margin-left="0"
     fit-margin-right="0"
     fit-margin-bottom="0">
    <inkscape:grid
       type="xygrid"
       id="grid6083"
       spacingx="20"
       spacingy="20.000001" />
  </sodipodi:namedview>
  <metadata
     id="metadata4205">
    <rdf:RDF>
      <cc:Work
         rdf:about="">
        <dc:format>image/svg+xml</dc:format>
        <dc:type
           rdf:resource="http://purl.org/dc/dcmitype/StillImage" />
        <dc:title></dc:title>
      </cc:Work>
    </rdf:RDF>
  </metadata>
  <g
     inkscape:label="Layer 1"
     inkscape:groupmode="layer"
     id="layer1"
     transform="translate(-140,547.63867)">
    <g
       id="g6288">
      <path
         id="rect7591"
         d="m 220,-307.63867 0,20 -20,0 0,20 0,20 20,0 0,20 20,0 20,0 0,-20 20,0 0,-20 0,-20 -20,0 0,-20 -20,0 -20,0 z m 340,0 0,20 -20,0 0,20 0,20 20,0 0,20 20,0 20,0 0,-20 20,0 0,-20 0,-20 -20,0 0,-20 -20,0 -20,0 z"
         style="opacity:1;fill:#323c39;fill-opacity:1;stroke:none;stroke-width:1;stroke-miterlimit:4;stroke-dasharray:none;stroke-dashoffset:0;stroke-opacity:1"
         inkscape:connector-curvature="0" />
      <path
         id="rect7599"
         d="m 360,-527.63867 0,20 20,0 20,0 20,0 20,0 20,0 20,0 20,0 20,0 20,0 20,0 20,0 20,0 20,0 20,0 0,-20 -20,0 -20,0 -20,0 -20,0 -20,0 -20,0 -20,0 -20,0 -20,0 -20,0 -20,0 -20,0 -20,0 -20,0 z m 280,20 0,20 0,20 0,20 0,20 0,20 0,20 0,20 0,20 0,20 0,20 0,20 20,0 0,-20 0,-20 0,-20 0,-20 0,-20 0,-20 0,-20 0,-20 0,-20 0,-20 0,-20 -20,0 z m 0,220 -20,0 0,20 20,0 0,-20 z m -20,0 0,-20 -20,0 0,20 20,0 z m -20,-20 0,-20 -20,0 -20,0 0,20 20,0 20,0 z m -40,0 -20,0 0,20 20,0 0,-20 z m -20,20 -20,0 -20,0 -20,0 -20,0 -20,0 -20,0 -20,0 -20,0 -20,0 0,-20 0,-20 0,-20 0,-20 0,-20 0,-20 0,-20 0,-20 0,-20 0,-20 0,-20 -20,0 0,20 0,20 -20,0 -20,0 0,20 20,0 20,0 0,20 0,20 0,20 0,20 0,20 0,20 0,20 0,20 -20,0 -20,0 -20,0 0,20 20,0 20,0 20,0 20,0 20,0 20,0 20,0 20,0 20,0 20,0 20,0 20,0 20,0 0,-20 z m -260,0 0,-20 -20,0 0,20 20,0 z m -20,-20 0,-20 -20,0 -20,0 0,20 20,0 20,0 z m -40,0 -20,0 0,20 20,0 0,-20 z m -20,20 -20,0 0,20 20,0 0,-20 z m -20,0 0,-20 0,-20 -20,0 0,20 0,20 20,0 z m 0,-40 20,0 0,-20 0,-20 -20,0 0,20 0,20 z m 20,-40 20,0 20,0 20,0 0,-20 -20,0 -20,0 -20,0 0,20 z m 60,-20 20,0 0,-20 0,-20 -20,0 0,20 0,20 z m 20,-40 20,0 0,-20 -20,0 0,20 z"
         style="opacity:1;fill:#9badb7;fill-opacity:1;stroke:none;stroke-width:1;stroke-miterlimit:4;stroke-dasharray:none;stroke-dashoffset:0;stroke-opacity:1"
         inkscape:connector-curvature="0" />
      <path
         id="rect7653"
         d="m 340,-527.63867 0,20 20,0 0,-20 -20,0 z m 300,0 0,20 20,0 0,-20 -20,0 z m -320,40 0,20 20,0 0,-20 -20,0 z m 200,20 0,20 -20,0 0,20 -20,0 0,20 -20,0 0,20 -20,0 0,20 -20,0 -20,0 -20,0 -20,0 0,20 0,20 20,0 20,0 20,0 20,0 20,0 0,-20 20,0 0,-20 20,0 0,-20 20,0 0,-20 20,0 0,-20 20,0 20,0 20,0 20,0 20,0 0,-20 0,-20 -20,0 -20,0 -20,0 -20,0 -20,0 -20,0 z m -320,100 0,20 0,20 20,0 20,0 20,0 20,0 20,0 20,0 20,0 0,-20 0,-20 -20,0 -20,0 -20,0 -20,0 -20,0 -20,0 -20,0 z m 320,0 0,20 -20,0 0,20 -20,0 0,20 -20,0 0,20 20,0 20,0 20,0 0,-20 20,0 0,-20 20,0 20,0 20,0 20,0 20,0 0,-20 0,-20 -20,0 -20,0 -20,0 -20,0 -20,0 -20,0 z m -360,80 0,20 20,0 0,-20 -20,0 z m 480,0 0,20 20,0 0,-20 -20,0 z"
         style="opacity:1;fill:#d95763;fill-opacity:1;stroke:none;stroke-width:1;stroke-miterlimit:4;stroke-dasharray:none;stroke-dashoffset:0;stroke-opacity:1"
         inkscape:connector-curvature="0" />
      <path
         id="rect7683"
         d="m 340,-547.63867 0,20 20,0 0,-20 -20,0 z m 0,20 -20,0 0,20 0,20 20,0 0,-20 0,-20 z m -20,40 -20,0 0,20 20,0 0,-20 z m 320,-60 0,20 20,0 0,-20 -20,0 z m 20,20 0,20 20,0 0,-20 -20,0 z m -520,240 0,20 20,0 0,-20 -20,0 z m 20,20 0,20 20,0 0,-20 -20,0 z m 500,-20 0,20 20,0 0,-20 -20,0 z m 0,20 -20,0 0,20 20,0 0,-20 z"
         style="opacity:1;fill:#fbf236;fill-opacity:1;stroke:none;stroke-width:1;stroke-miterlimit:4;stroke-dasharray:none;stroke-dashoffset:0;stroke-opacity:1"
         inkscape:connector-curvature="0" />
      <path
         id="rect7693"
         d="m 300,-447.63867 0,20 -20,0 0,20 0,20 20,0 20,0 20,0 0,-20 0,-20 0,-20 -20,0 -20,0 z"
         style="opacity:1;fill:#696a6a;fill-opacity:1;stroke:none;stroke-width:1;stroke-miterlimit:4;stroke-dasharray:none;stroke-dashoffset:0;stroke-opacity:1"
         inkscape:connector-curvature="0" />
      <path
         id="rect7711"
         d="m 260,-387.63867 0,20 20,0 20,0 20,0 20,0 0,-20 -20,0 -20,0 -20,0 -20,0 z"
         style="opacity:1;fill:#847e87;fill-opacity:1;stroke:none;stroke-width:1;stroke-miterlimit:4;stroke-dasharray:none;stroke-dashoffset:0;stroke-opacity:1"
         inkscape:connector-curvature="0" />
      <path
         id="rect7769"
         d="m 400,-467.63867 0,20 -20,0 0,20 20,0 0,20 20,0 0,-20 20,0 0,-20 -20,0 0,-20 -20,0 z"
         style="opacity:1;fill:#6abe30;fill-opacity:1;stroke:none;stroke-width:1;stroke-miterlimit:4;stroke-dasharray:none;stroke-dashoffset:0;stroke-opacity:1"
         inkscape:connector-curvature="0" />
      <path
         id="rect6085"
         transform="translate(140,-547.63867)"
         d="M 220 40 L 220 60 L 220 80 L 220 100 L 220 120 L 220 140 L 220 160 L 220 180 L 240 180 L 260 180 L 280 180 L 300 180 L 300 160 L 320 160 L 320 140 L 340 140 L 340 120 L 360 120 L 360 100 L 380 100 L 380 80 L 400 80 L 420 80 L 440 80 L 460 80 L 480 80 L 500 80 L 500 60 L 500 40 L 480 40 L 460 40 L 440 40 L 420 40 L 400 40 L 380 40 L 360 40 L 340 40 L 320 40 L 300 40 L 280 40 L 260 40 L 240 40 L 220 40 z M 260 80 L 280 80 L 280 100 L 300 100 L 300 120 L 280 120 L 280 140 L 260 140 L 260 120 L 240 120 L 240 100 L 260 100 L 260 80 z M 400 120 L 400 140 L 380 140 L 380 160 L 360 160 L 360 180 L 340 180 L 340 200 L 320 200 L 320 220 L 300 220 L 280 220 L 260 220 L 240 220 L 220 220 L 220 240 L 220 260 L 240 260 L 260 260 L 280 260 L 300 260 L 320 260 L 320 240 L 340 240 L 340 220 L 360 220 L 360 200 L 380 200 L 380 180 L 400 180 L 420 180 L 440 180 L 460 180 L 480 180 L 500 180 L 500 160 L 500 140 L 500 120 L 480 120 L 460 120 L 440 120 L 420 120 L 400 120 z M 40 220 L 40 240 L 40 260 L 60 260 L 60 240 L 80 240 L 80 220 L 60 220 L 40 220 z M 120 220 L 120 240 L 140 240 L 140 260 L 160 260 L 180 260 L 200 260 L 200 240 L 200 220 L 180 220 L 160 220 L 140 220 L 120 220 z M 400 220 L 400 240 L 420 240 L 420 220 L 400 220 z M 400 240 L 380 240 L 380 260 L 400 260 L 400 240 z M 460 220 L 460 240 L 480 240 L 480 260 L 500 260 L 500 240 L 500 220 L 480 220 L 460 220 z "
         style="opacity:1;fill:#ffffff;fill-opacity:1;stroke:none;stroke-width:1;stroke-miterlimit:4;stroke-dasharray:none;stroke-dashoffset:0;stroke-opacity:1" />
    </g>
  </g>
</svg>
